<?xml version="1.0" standalone="no"?>
<!DOCTYPE svg PUBLIC "-//W3C//DTD SVG 20010904//EN"
 "http://www.w3.org/TR/2001/REC-SVG-20010904/DTD/svg10.dtd">
<svg version="1.0" xmlns="http://www.w3.org/2000/svg"
 width="500.000000pt" height="500.000000pt" viewBox="0 0 500.000000 500.000000"
 preserveAspectRatio="xMidYMid meet">

<g transform="translate(0.000000,500.000000) scale(0.100000,-0.100000)"
fill="#000000" stroke="none">
<path d="M3057 3013 c-54 -164 -97 -301 -97 -305 0 -5 6 -8 14 -8 9 0 27 39
51 111 21 61 41 107 45 102 4 -4 23 -54 41 -110 l33 -103 118 0 c89 0 116 3
113 13 -131 404 -199 597 -209 597 -7 0 -51 -118 -109 -297z"/>
<path d="M1030 3265 c0 -12 16 -15 90 -15 l90 0 0 -275 c0 -238 2 -275 15
-275 13 0 15 35 15 252 0 153 4 248 9 243 5 -6 46 -116 91 -245 44 -129 85
-239 89 -243 4 -4 57 -6 118 -5 l111 3 -102 285 -102 285 -212 3 c-184 2 -212
0 -212 -13z"/>
<path d="M2277 3238 c-160 -457 -186 -538 -168 -538 15 0 35 46 107 258 l89
257 3 -257 2 -258 110 0 110 0 0 275 0 275 95 0 c78 0 95 3 95 15 0 13 -30 15
-214 15 l-214 0 -15 -42z"/>
<path d="M1200 2510 c0 -33 4 -60 10 -60 6 0 10 16 10 35 0 41 12 45 28 10 6
-14 16 -25 22 -25 6 0 16 11 22 25 16 35 28 31 28 -10 0 -19 5 -35 10 -35 6 0
10 27 10 60 0 70 -15 79 -44 25 -11 -19 -22 -35 -25 -35 -4 0 -15 16 -25 35
-30 54 -46 46 -46 -25z"/>
<path d="M1430 2532 c0 -67 40 -99 91 -72 15 8 19 22 19 60 0 28 -4 50 -10 50
-5 0 -10 -17 -10 -39 0 -41 -20 -67 -45 -57 -10 4 -15 19 -15 51 0 33 -4 45
-15 45 -11 0 -15 -11 -15 -38z"/>
<path d="M1634 2555 c-10 -25 3 -43 35 -50 46 -10 42 -39 -4 -32 -19 3 -35 2
-35 -3 0 -13 45 -23 68 -16 42 14 34 61 -11 68 -34 5 -28 34 6 30 15 -1 27 2
27 8 0 17 -80 12 -86 -5z"/>
<path d="M1800 2560 c0 -5 9 -10 20 -10 17 0 20 -7 20 -50 0 -27 5 -50 10 -50
6 0 10 23 10 50 0 43 3 50 20 50 11 0 20 5 20 10 0 6 -22 10 -50 10 -27 0 -50
-4 -50 -10z"/>
<path d="M1997 2510 c-18 -43 -22 -60 -12 -60 7 0 15 7 19 15 8 21 63 19 75
-2 5 -10 13 -14 17 -10 11 11 -43 117 -59 117 -8 0 -25 -27 -40 -60z m56 10
c4 -15 0 -20 -14 -20 -21 0 -22 1 -13 24 8 22 21 20 27 -4z"/>
<path d="M2190 2510 c0 -33 4 -60 10 -60 6 0 10 11 10 25 0 21 5 25 30 25 17
0 30 5 30 10 0 6 -13 10 -30 10 -20 0 -30 5 -30 15 0 10 10 15 29 15 17 0 33
5 36 10 4 6 -12 10 -39 10 l-46 0 0 -60z"/>
<path d="M2377 2513 c-26 -57 -27 -84 -3 -50 7 9 26 17 41 17 15 0 34 -8 41
-17 24 -34 24 -6 -1 50 -13 32 -31 57 -38 57 -8 0 -26 -26 -40 -57z m48 -11
c-22 -5 -29 3 -21 25 7 17 8 17 22 -2 13 -18 13 -20 -1 -23z"/>
<path d="M2687 2513 c-26 -57 -27 -84 -3 -50 7 9 26 17 41 17 15 0 34 -8 41
-17 24 -34 24 -6 -1 50 -13 32 -31 57 -38 57 -8 0 -26 -26 -40 -57z m48 -11
c-22 -5 -29 3 -21 25 7 17 8 17 22 -2 13 -18 13 -20 -1 -23z"/>
<path d="M2877 2563 c-18 -17 -5 -45 28 -59 46 -19 46 -37 0 -32 -36 4 -45
-14 -11 -20 36 -7 66 7 66 32 0 19 -8 27 -36 36 -39 13 -41 35 -1 35 14 0 29
3 33 8 4 4 -11 7 -33 7 -22 0 -43 -3 -46 -7z"/>
<path d="M3050 2510 c0 -47 3 -60 15 -60 9 0 15 9 15 25 0 21 5 25 30 25 25 0
30 -4 30 -25 0 -14 5 -25 10 -25 6 0 10 27 10 60 0 33 -4 60 -10 60 -5 0 -10
-11 -10 -25 0 -21 -5 -25 -30 -25 -25 0 -30 4 -30 25 0 16 -6 25 -15 25 -12 0
-15 -13 -15 -60z"/>
<path d="M3260 2510 c0 -33 4 -60 10 -60 6 0 10 7 10 15 0 27 29 29 49 4 11
-13 23 -21 27 -17 4 4 1 15 -7 24 -11 13 -11 18 -1 21 18 7 15 60 -4 67 -9 3
-31 6 -50 6 l-34 0 0 -60z m75 20 c0 -9 -11 -16 -27 -18 -23 -3 -28 1 -28 18
0 17 5 21 28 18 16 -2 27 -9 27 -18z"/>
<path d="M3465 2513 c-25 -56 -25 -84 -1 -50 17 22 76 24 76 2 0 -8 7 -15 15
-15 13 0 14 4 1 33 -46 107 -56 111 -91 30z m55 1 c0 -8 -9 -14 -20 -14 -18 0
-19 3 -10 20 12 22 30 18 30 -6z"/>
<path d="M3650 2510 c0 -47 3 -60 15 -60 9 0 15 9 15 25 0 20 5 25 25 25 14 0
25 5 25 10 0 6 -11 10 -25 10 -16 0 -25 6 -25 15 0 10 10 15 30 15 17 0 30 5
30 10 0 6 -20 10 -45 10 l-45 0 0 -60z"/>
<path d="M1210 2030 l0 -270 -90 0 c-73 0 -90 -3 -90 -15 0 -13 29 -15 200
-15 169 0 200 2 200 15 0 11 -19 15 -92 17 l-93 3 -3 268 c-2 228 -4 267 -17
267 -13 0 -15 -38 -15 -270z"/>
<path d="M1572 2288 c3 -7 47 -136 99 -286 68 -196 98 -272 108 -270 8 2 30
49 52 113 20 61 64 188 97 283 52 148 57 172 42 172 -13 0 -25 -23 -50 -92
-17 -51 -35 -96 -39 -101 -4 -4 -23 37 -42 90 l-34 98 -119 3 c-93 2 -117 0
-114 -10z"/>
<path d="M2310 2030 l0 -270 -90 0 c-73 0 -90 -3 -90 -15 0 -13 39 -15 295
-15 256 0 295 2 295 15 0 13 20 15 120 15 100 0 120 3 120 15 0 13 -21 15
-128 15 -71 0 -131 3 -134 6 -3 3 27 103 66 222 l73 217 230 3 231 2 74 -220
c41 -121 72 -223 69 -225 -2 -3 -55 -5 -118 -5 -94 0 -113 -3 -113 -15 0 -13
44 -15 335 -15 288 0 335 2 335 15 0 11 -20 15 -102 17 l-101 3 -81 250 -82
250 -118 3 c-103 2 -118 1 -113 -13 6 -13 -20 -15 -214 -15 -193 0 -220 2
-215 15 4 10 -1 15 -14 15 -16 0 -32 -39 -102 -252 l-83 -253 -60 0 -60 0 -3
253 -2 252 -110 0 -110 0 0 -270z"/>
<path d="M2706 1531 c-4 -5 3 -7 14 -4 23 6 26 13 6 13 -8 0 -17 -4 -20 -9z"/>
<path d="M2250 1495 c0 -19 2 -35 4 -35 2 0 6 16 8 35 2 19 0 35 -4 35 -4 0
-8 -16 -8 -35z"/>
<path d="M2553 1483 c9 -2 25 -2 35 0 9 3 1 5 -18 5 -19 0 -27 -2 -17 -5z"/>
</g>
</svg>
